<?xml version="1.0" standalone="no"?>
<!DOCTYPE svg PUBLIC "-//W3C//DTD SVG 20010904//EN"
 "http://www.w3.org/TR/2001/REC-SVG-20010904/DTD/svg10.dtd">
<svg version="1.0" xmlns="http://www.w3.org/2000/svg"
 width="479.000000pt" height="479.000000pt" viewBox="0 0 479.000000 479.000000"
 preserveAspectRatio="xMidYMid meet">
<metadata>
Created by potrace 1.11, written by Peter Selinger 2001-2013
</metadata>
<g transform="translate(0.000000,479.000000) scale(0.100000,-0.100000)"
fill="#000000" stroke="none">
<path d="M0 2395 l0 -2395 1071 0 c973 0 1071 1 1065 16 -3 9 -6 25 -6 37 0
18 -2 19 -11 7 -8 -13 -10 -12 -7 4 3 20 39 33 37 13 -1 -7 -1 -27 0 -44 l1
-33 1320 0 1320 0 0 2395 0 2395 -2395 0 -2395 0 0 -2395z m880 1058 c0 -7 -4
-13 -10 -13 -5 0 -10 3 -10 8 0 4 -3 18 -6 32 -6 24 -6 25 9 5 9 -11 17 -26
17 -32z m2929 -60 c-25 -27 -67 -75 -93 -108 -27 -32 -68 -82 -93 -109 -36
-40 -42 -44 -31 -20 7 16 18 38 25 49 7 11 9 26 4 33 -4 7 -6 25 -3 40 l5 27
-28 -25 c-58 -53 -88 -101 -101 -163 -17 -80 -17 -82 3 -66 15 13 15 12 5 -8
-19 -35 -90 -87 -195 -143 -95 -51 -127 -57 -127 -25 0 9 -11 31 -25 49 -14
18 -22 35 -19 39 3 3 -4 15 -15 26 -12 12 -21 18 -21 14 0 -4 -7 3 -16 15 -8
12 -21 19 -27 16 -7 -4 -9 -4 -5 0 7 9 -23 45 -34 39 -4 -2 -10 2 -14 8 -4 8
-3 9 4 5 7 -4 12 -3 12 3 0 5 -6 11 -12 14 -18 6 140 34 321 57 85 11 161 26
170 33 8 6 33 32 55 56 23 24 66 61 96 81 66 45 181 110 195 110 5 0 -11 -21
-36 -47z m-2909 27 c0 -5 -2 -10 -4 -10 -3 0 -8 5 -11 10 -3 6 -1 10 4 10 6 0
11 -4 11 -10z m28 -121 c-18 -11 -23 7 -6 25 11 12 13 12 16 -1 2 -9 -2 -19
-10 -24z m56 -130 c-2 -4 7 -31 19 -60 13 -30 29 -81 36 -114 15 -73 42 -166
51 -180 4 -5 6 -22 4 -38 -1 -15 1 -25 7 -22 8 5 11 -8 8 -31 0 -4 5 -11 13
-15 9 -6 7 -9 -8 -9 -17 0 -26 12 -42 58 -36 102 -53 174 -57 236 -2 34 -12
83 -24 109 -12 27 -21 57 -21 67 0 10 -6 20 -14 23 -7 3 -16 15 -19 28 -5 18
0 15 23 -12 15 -19 26 -37 24 -40z m1908 -96 c-3 -23 0 -35 12 -39 20 -8 21
-24 1 -24 -21 0 -19 -13 5 -30 11 -8 20 -20 20 -28 0 -7 3 -11 8 -9 16 10 30
-19 39 -85 5 -36 6 -37 29 -21 25 16 27 14 27 -29 0 -10 3 -15 7 -13 4 3 11
-2 14 -11 4 -9 5 -18 4 -19 -51 -31 -165 -119 -203 -155 -70 -66 -248 -198
-344 -254 -64 -38 -293 -146 -309 -146 -2 0 -1 -3 1 -7 3 -5 -5 -9 -17 -9 -13
-1 -82 -29 -155 -63 -147 -69 -209 -93 -221 -86 -5 3 -10 1 -12 -3 -3 -8 -129
-54 -181 -66 -15 -4 -26 -2 -25 3 2 5 -14 28 -35 50 -21 22 -36 45 -33 50 3 5
-3 19 -13 32 -22 28 -53 100 -47 107 3 2 13 -12 22 -31 10 -20 21 -34 25 -32
3 3 12 -1 18 -8 9 -11 28 -9 108 11 54 14 99 26 101 28 2 1 -1 17 -6 35 -6 22
-14 33 -23 30 -8 -2 -35 -9 -61 -16 l-47 -13 -24 67 c-14 36 -23 69 -20 74 2
4 15 7 29 7 27 0 29 12 13 59 -8 21 -15 29 -23 23 -36 -28 -45 -22 -68 49 -14
43 -18 73 -12 78 5 6 32 16 59 22 28 7 51 14 53 15 8 5 -29 64 -40 64 -6 0
-51 -12 -99 -26 l-87 -27 12 -31 c34 -80 67 -196 60 -207 -2 -4 0 -9 4 -11 11
-4 74 -187 69 -201 -2 -6 -9 4 -16 21 -8 18 -17 32 -22 32 -5 0 -6 7 -3 14 3
8 -3 25 -14 36 -30 33 -82 193 -82 255 0 13 -4 27 -10 30 -5 3 -10 -2 -10 -12
0 -15 -2 -16 -10 -3 -6 8 -9 31 -8 50 3 70 -36 235 -54 224 -4 -3 -8 0 -8 5 0
6 8 11 18 11 9 0 69 7 132 15 256 34 479 55 591 55 67 0 149 7 190 15 40 9 74
13 77 10 3 -3 0 -5 -6 -5 -6 0 -9 -7 -6 -15 4 -8 10 -13 14 -10 5 3 11 -8 15
-25 4 -17 10 -28 13 -26 4 2 7 -9 8 -25 1 -18 -3 -26 -10 -22 -7 5 -7 2 1 -8
6 -8 38 -86 71 -173 33 -87 67 -163 75 -167 19 -11 105 24 114 47 3 9 -2 31
-11 51 -9 19 -14 39 -11 44 4 5 3 9 -2 9 -4 0 -8 13 -9 28 0 15 -13 52 -27 81
-15 29 -27 58 -27 64 0 15 28 -29 95 -149 52 -93 58 -97 93 -68 2 1 -13 32
-33 69 -21 36 -34 69 -31 72 7 7 18 -6 63 -72 15 -22 29 -42 30 -44 2 -2 14 1
28 7 l26 12 -50 66 c-28 37 -48 71 -44 77 9 14 -68 156 -89 162 -9 3 -39 -5
-66 -19 -51 -26 -62 -25 -62 5 0 10 -9 27 -20 37 -19 18 -16 19 163 86 155 58
233 81 282 82 6 1 9 -14 7 -33z m-294 -258 c26 -54 26 -51 8 -58 -22 -8 -74
82 -55 94 22 13 24 12 47 -36z m-155 -104 c9 -20 17 -42 17 -48 0 -6 4 -13 10
-15 16 -6 60 -117 49 -124 -16 -9 -22 2 -64 106 -20 52 -39 101 -42 108 -3 6
-1 12 3 12 5 0 17 -18 27 -39z m-1270 -140 c9 -20 17 -45 17 -53 0 -9 4 -18 8
-20 4 -1 25 -48 46 -103 21 -55 48 -122 58 -150 30 -75 32 -91 14 -98 -12 -5
-20 4 -31 30 -8 19 -15 45 -15 56 0 11 -3 17 -7 13 -14 -13 -123 288 -123 340
0 35 12 29 33 -15z m1507 -231 c0 -7 6 -7 20 0 16 9 20 8 20 -5 0 -11 -9 -15
-30 -13 -27 2 -45 28 -20 28 6 0 10 -5 10 -10z m230 -1 c0 -5 -10 -9 -22 -10
-109 -5 -134 -5 -143 0 -5 3 13 8 40 11 84 8 125 8 125 -1z m130 1 c9 -4 -54
-18 -87 -19 -24 -1 -33 3 -33 15 0 13 10 15 58 11 31 -3 59 -6 62 -7z m-390
-10 c0 -5 -10 -10 -22 -9 -22 0 -22 1 -3 9 11 5 21 9 23 9 1 1 2 -3 2 -9z
m-1746 -32 c-3 -4 5 -8 18 -8 18 0 20 2 9 9 -10 6 1 8 30 4 51 -7 64 -13 26
-13 -14 0 -29 -4 -32 -10 -9 -15 -63 -12 -72 4 -4 7 -15 15 -23 18 -8 3 -1 6
17 5 18 0 30 -4 27 -9z m-134 -18 c-8 -5 -23 -10 -32 -10 -10 0 -18 -6 -19
-12 0 -10 -2 -10 -6 0 -2 6 -19 13 -36 14 -23 1 -19 3 18 8 82 11 92 11 75 0z
m-143 -22 c-3 -8 -6 -5 -6 6 -1 11 2 17 5 13 3 -3 4 -12 1 -19z m1705 -41 c-9
-20 -24 -36 -32 -37 -10 0 -11 3 -4 8 6 4 19 22 28 40 23 45 30 36 8 -11z
m-1669 16 c-7 -2 -19 -2 -25 0 -7 3 -2 5 12 5 14 0 19 -2 13 -5z m74 -19 c2
-13 1 -15 -4 -4 -3 8 -11 19 -17 23 -7 6 -6 7 4 4 8 -2 16 -12 17 -23z m1636
-28 c-3 -4 -9 -2 -14 5 -13 22 -11 31 5 17 8 -7 12 -17 9 -22z m-53 -20 c0 -2
-7 -7 -16 -10 -8 -3 -12 -2 -9 4 6 10 25 14 25 6z m-67 -21 c-3 -9 -8 -14 -10
-11 -3 3 -2 9 2 15 9 16 15 13 8 -4z m24 -10 c0 -8 -4 -12 -9 -9 -5 3 -6 10
-3 15 9 13 12 11 12 -6z m-1414 -22 c-7 -2 -19 -2 -25 0 -7 3 -2 5 12 5 14 0
19 -2 13 -5z m1417 -17 c0 -2 -7 -7 -16 -10 -8 -3 -12 -2 -9 4 6 10 25 14 25
6z m-120 -26 c0 -5 -2 -10 -4 -10 -3 0 -8 5 -11 10 -3 6 -1 10 4 10 6 0 11 -4
11 -10z m90 -9 c0 -17 -25 -30 -40 -21 -12 8 -10 10 8 10 13 0 20 4 17 10 -3
6 -1 10 4 10 6 0 11 -4 11 -9z m227 3 c-3 -3 -12 -4 -19 -1 -8 3 -5 6 6 6 11
1 17 -2 13 -5z m-1067 -91 c0 -10 6 -29 13 -43 24 -45 26 -69 8 -73 -11 -3
-10 -5 5 -6 23 -1 34 -19 34 -51 0 -18 64 -226 98 -320 9 -25 15 -49 14 -54
-2 -5 4 -16 12 -25 8 -9 22 -36 31 -61 10 -25 28 -67 40 -95 12 -27 30 -72 40
-100 10 -27 24 -54 30 -60 7 -5 18 -28 26 -50 8 -22 18 -43 24 -47 7 -5 7 -8
0 -8 -6 0 -6 -3 1 -8 6 -4 24 -35 41 -69 17 -34 39 -75 50 -90 24 -36 44 -75
46 -93 2 -8 6 -21 11 -28 4 -7 6 -16 2 -19 -3 -3 1 -12 9 -19 7 -8 22 -38 33
-66 11 -29 32 -79 46 -111 15 -32 24 -63 20 -69 -4 -7 -3 -8 4 -4 11 6 16 -6
13 -26 0 -5 3 -8 8 -8 5 0 7 -13 6 -30 -1 -16 4 -41 11 -56 8 -15 11 -30 8
-33 -4 -3 -9 0 -11 7 -3 6 -9 9 -15 6 -6 -4 -8 2 -3 16 5 16 4 20 -5 15 -7 -4
-11 -2 -9 6 3 21 -12 79 -21 79 -8 0 -36 81 -32 93 1 5 -2 6 -7 3 -12 -8 -21
18 -14 43 4 15 1 21 -10 21 -20 0 -27 20 -15 44 7 13 7 16 -1 12 -6 -4 -11 -2
-11 4 0 6 -5 8 -10 5 -6 -4 -10 -3 -9 2 1 4 -5 25 -14 45 -10 21 -17 45 -17
53 0 9 -4 14 -9 11 -13 -8 -270 518 -339 694 -34 85 -79 215 -101 288 -22 74
-45 140 -52 148 -6 7 -9 20 -6 28 4 9 0 38 -7 66 -13 50 -13 50 10 50 16 0 24
-6 24 -17z m74 -35 c8 -5 7 -8 -1 -8 -7 0 -17 9 -23 19 -14 27 -12 41 2 16 6
-11 16 -23 22 -27z m46 -11 c0 -2 -10 -12 -21 -23 -22 -19 -22 -19 -8 4 12 19
29 30 29 19z m2820 -1231 c0 -3 -4 -8 -10 -11 -5 -3 -10 -1 -10 4 0 6 5 11 10
11 6 0 10 -2 10 -4z m-80 -81 c-14 -8 -32 -14 -40 -14 -8 0 -1 6 15 14 40 18
57 18 25 0z m-2153 -388 c4 -6 1 -7 -7 -2 -8 5 -7 -1 3 -16 22 -31 23 -57 2
-39 -9 7 -13 15 -11 17 3 3 -4 14 -15 26 -10 11 -19 24 -19 28 0 10 39 -1 47
-14z m-10 -119 c-3 -8 -6 -5 -6 6 -1 11 2 17 5 13 3 -3 4 -12 1 -19z m33 6 c0
-8 -4 -12 -10 -9 -5 3 -10 10 -10 16 0 5 5 9 10 9 6 0 10 -7 10 -16z"/>
<path d="M2693 2974 l-42 -26 25 -40 c14 -22 50 -89 79 -148 l53 -108 41 25
c23 14 41 32 41 42 0 27 -10 32 -34 16 -31 -23 -41 -19 -61 26 -15 32 -16 42
-6 49 21 12 4 52 -19 45 -15 -5 -24 3 -40 34 -19 38 -19 41 -3 50 38 22 43 28
37 44 -8 23 -21 21 -71 -9z"/>
<path d="M2153 2782 c-28 -4 -28 -7 1 -73 12 -30 45 -116 71 -191 53 -154 48
-149 140 -124 46 12 50 15 48 41 -1 15 -4 29 -5 31 -2 2 -25 -4 -50 -14 -26
-9 -49 -14 -51 -12 -7 9 -117 316 -117 328 0 15 -11 19 -37 14z"/>
<path d="M1985 2765 c-27 -8 -54 -14 -58 -15 -4 0 -4 -8 2 -17 8 -16 113 -370
123 -414 2 -13 9 -14 36 -7 26 7 32 13 27 26 -4 9 -17 52 -30 95 l-22 78 24
10 c13 5 31 9 38 9 30 0 27 48 -6 137 -31 83 -51 113 -74 112 -5 0 -32 -7 -60
-14z m84 -117 c11 -34 20 -63 18 -64 -1 -1 -11 -4 -22 -6 -16 -2 -23 8 -41 57
-23 65 -23 75 6 75 13 0 24 -16 39 -62z"/>
<path d="M1814 2738 l-31 -10 4 -72 4 -71 -30 50 c-17 28 -31 56 -31 63 0 8
-7 11 -17 8 -10 -3 -30 -8 -45 -12 -25 -5 -40 -24 -20 -24 4 0 35 -46 69 -102
l62 -103 2 -127 c3 -137 3 -136 56 -118 l30 11 -9 56 c-5 31 -7 64 -6 72 4 20
58 -74 58 -99 0 -16 4 -17 38 -8 20 6 40 12 44 14 4 3 -22 53 -58 113 l-65
108 -2 131 c-1 81 -6 131 -12 131 -5 -1 -24 -6 -41 -11z"/>
</g>
</svg>
